<?xml version="1.0" encoding="UTF-8"?>
<svg id="Inner-white" xmlns="http://www.w3.org/2000/svg" viewBox="0 0 301.53 372.81">
  <defs>
    <style>
      .cls-1 {
        fill: #ee2251;
      }
    </style>
  </defs>
  <path class="cls-1" d="M205.31,235.62l6.5-2.3,10.02-3.25,9.68-3.92,9.54-4.33,8.66-5.68,7.85-6.63,7.98-6.63,7.44-7.71,7.31-9.88,4.33-8.39,4.87-9.47,3.79-10.02,2.84-9.47,2.03-10.15.95-9.74v-18.68l-1.22-10.83-2.44-10.83-3.79-11.23-3.79-9.34-5.01-8.93-5.68-8.66-7.58-9.47-9.61-9.34-10.96-8.93-12.18-7.85-13.67-7.04-15.7-4.6-19.08-2.3H35.46L0,68.02l70.92,100.93H0v203.86h69.83v-135.7h52.33l94.92,135.7h84.45l-96.23-137.19ZM179.38,168.95h-21.22l-72.63-100.93h99.04c3.07.5,5.78.85,7.87,1.79,2.09.94,5.34,2.46,5.34,2.46,0,0,5.22,2.38,6.77,3.09,4.48,2.06,8.32,4.93,8.32,4.93,0,0,2.49,1.72,5.45,4.2,1.63,1.37,3.41,2.97,5,4.65,1.8,1.9,3.35,3.9,4.17,5.77,1.22,3.49,2.39,8.36,3.3,19.34.98,7.56.91,12.42,0,15.09-1.25,5.8-3.53,11.47-7.07,16.98-3.68,4.37-7.64,8.55-12.26,12.26-5.71,4.39-11.07,7.12-16.04,8.02-3.53,1.08-8.78,1.88-16.04,2.36Z"/>
</svg>